<?xml version="1.0" encoding="UTF-8"?>
<svg version="1.1" xmlns="http://www.w3.org/2000/svg" width="1164" height="632">
<path d="M0 0 C384.12 0 768.24 0 1164 0 C1164 208.56 1164 417.12 1164 632 C779.88 632 395.76 632 0 632 C0 423.44 0 214.88 0 0 Z " fill="#FEFEFE" transform="translate(0,0)"/>
<path d="M0 0 C13.86 0 27.72 0 42 0 C46.41108496 6.30154994 50.69360681 12.54800188 54.75 19.0625 C58.58251702 25.17421693 62.44297787 31.26429548 66.375 37.3125 C70.62254616 43.85034412 74.82045359 50.41848693 79 57 C83.56421311 64.18650946 88.15597227 71.35340131 92.79443359 78.4921875 C97.4136888 85.61289984 101.95695236 92.78186408 106.49414062 99.95507812 C107.06583984 100.85677734 107.63753906 101.75847656 108.2265625 102.6875 C108.99347412 103.89986328 108.99347412 103.89986328 109.77587891 105.13671875 C110.86667975 106.93425421 110.86667975 106.93425421 112 108 C112.33 72.36 112.66 36.72 113 0 C126.86 0 140.72 0 155 0 C155 59.4 155 118.8 155 180 C141.14 180 127.28 180 113 180 C109.37 174.39 105.74 168.78 102 163 C99.3703125 158.9471875 99.3703125 158.9471875 96.6875 154.8125 C92.50349168 148.35738331 88.37102267 141.87047026 84.25 135.375 C79.34818671 127.6498665 74.38585276 119.96732806 69.375 112.3125 C63.76015779 103.7337052 58.23302996 95.10511343 52.78125 86.421875 C49.5402217 81.26900417 46.26817161 76.13569825 43 71 C42.67 106.97 42.34 142.94 42 180 C28.14 180 14.28 180 0 180 C0 120.6 0 61.2 0 0 Z " fill="#B6281C" transform="translate(240,243)"/>
<path d="M0 0 C92.34087302 0 92.34087302 0 109.5 15.35546875 C120.80163134 27.74605936 124.04789326 41.73353953 123.44921875 58.015625 C122.47708592 72.14286623 116.52876358 85.43028832 106.20703125 95.1796875 C100.41987755 99.95280896 94.34076584 103.40418134 87 105 C94.83290227 114.83914971 102.77007921 124.57964236 110.91333008 134.16333008 C114.55943582 138.4609124 118.1297004 142.81648907 121.6875 147.1875 C124.26146924 150.31800313 126.8759647 153.41148551 129.5 156.5 C133.00159003 160.62746334 136.48960409 164.76492317 139.9375 168.9375 C140.62714844 169.77152344 141.31679688 170.60554687 142.02734375 171.46484375 C144.17127326 174.22011157 146.07661363 177.08777235 148 180 C140.67343364 180.38290646 133.34947054 180.64399979 126.01513672 180.82397461 C123.52554978 180.89903997 121.03661615 181.00113901 118.54931641 181.1315918 C98.5080599 182.15574418 98.5080599 182.15574418 92.75152588 178.61828613 C89.00476642 175.22391782 86.43803491 171.23899907 84.02441406 166.82876587 C82.68968521 164.44603153 81.06144007 162.38507507 79.3359375 160.2734375 C78.34725203 158.97525607 77.36022294 157.67581119 76.375 156.375 C75.27747837 154.93349125 74.17982091 153.4920859 73.08203125 152.05078125 C72.55818848 151.36193848 72.0343457 150.6730957 71.49462891 149.96337891 C66.50772338 143.41246511 61.48250709 136.89120471 56.41015625 130.40625 C55.47127563 129.20440063 55.47127563 129.20440063 54.51342773 127.97827148 C53.28436272 126.40598986 52.05349807 124.83511282 50.82055664 123.26586914 C50.25328857 122.54004639 49.68602051 121.81422363 49.1015625 121.06640625 C48.34866943 120.1064978 48.34866943 120.1064978 47.58056641 119.12719727 C45.62061585 116.48940777 43.82287513 113.73431269 42 111 C41.67 133.77 41.34 156.54 41 180 C27.47 180 13.94 180 0 180 C0 120.6 0 61.2 0 0 Z " fill="#B6261A" transform="translate(778,243)"/>
<path d="M0 0 C13.53 0 27.06 0 41 0 C41.01458252 3.31949707 41.02916504 6.63899414 41.04418945 10.05908203 C41.09468716 21.06734326 41.16130868 32.07546529 41.23571491 43.08358955 C41.28030662 49.75315003 41.3195872 56.42262244 41.34643555 63.09228516 C41.37258041 69.53742601 41.41306143 75.98233645 41.46318626 82.42733383 C41.47977958 84.87747186 41.49134049 87.32764966 41.49761391 89.77783585 C40.63126837 114.12654085 40.63126837 114.12654085 50.4140625 135.51953125 C56.46350905 140.90198754 62.00920723 141.36354912 69.75 141.375 C70.6059375 141.39949219 71.461875 141.42398438 72.34375 141.44921875 C79.0715609 141.47979971 85.46556268 140.21312483 90.5925293 135.55224609 C98.45741268 126.4752941 98.29489911 114.52427299 98.31884766 103.08105469 C98.32889328 101.95764175 98.3389389 100.83422882 98.34928894 99.67677307 C98.37987936 96.00847835 98.39708845 92.34025577 98.4140625 88.671875 C98.43279359 86.11069122 98.45236842 83.54951348 98.4727478 80.98834229 C98.51866071 74.96450992 98.5561416 68.94068363 98.58942068 62.91677308 C98.62783106 56.05078894 98.67719067 49.1848966 98.72740483 42.31899023 C98.83032984 28.21272172 98.91827188 14.10640643 99 0 C112.86 0 126.72 0 141 0 C141.06797408 16.15203512 141.12313041 32.30394631 141.15543652 48.45608521 C141.17084194 55.95742957 141.19180888 63.45867812 141.22631836 70.95996094 C141.25641614 77.50545193 141.27562083 84.05087345 141.28226548 90.59643173 C141.28614363 94.05558636 141.29512198 97.51454244 141.31719017 100.97363281 C141.46022246 124.3234026 141.27022102 146.47873263 125 165 C108.81938277 180.51856251 87.93315117 183.53813372 66.3515625 183.1171875 C64.90103347 183.07843048 63.45051215 183.03938344 62 183 C60.77023437 182.98195313 59.54046875 182.96390625 58.2734375 182.9453125 C41.74866973 182.3111792 27.32531762 175.83613384 15.3203125 164.52734375 C5.86510657 154.2284915 0.96836067 140.01411709 0.37329102 126.17236328 C0.33618546 125.41143938 0.29907991 124.65051548 0.26084995 123.86653328 C-0.23948575 112.20848379 -0.12279344 100.53301576 -0.09765625 88.8671875 C-0.09578691 86.2921654 -0.09436545 83.71714294 -0.09336853 81.14212036 C-0.08996867 75.10782915 -0.08212533 69.07355944 -0.07201904 63.03927624 C-0.06074752 56.15628381 -0.05531996 49.27329037 -0.05032361 42.39029098 C-0.03993877 28.26018242 -0.02163823 14.13009571 0 0 Z " fill="#B6271B" transform="translate(597,243)"/>
<path d="M0 0 C1.13614746 0.00572021 2.27229492 0.01144043 3.44287109 0.01733398 C21.86512911 0.40129263 40.43556188 5.88597367 55.625 16.5 C54.24402341 20.9748383 52.47581321 25.03202474 50.3671875 29.2109375 C50.05927277 29.82393707 49.75135803 30.43693665 49.43411255 31.06851196 C48.45984937 33.00593658 47.48003083 34.9404876 46.5 36.875 C45.8342647 38.19642788 45.16889647 39.51804076 44.50390625 40.83984375 C42.88184177 44.06204525 41.25478626 47.28169593 39.625 50.5 C36.32075732 49.19991404 33.19802721 47.79091463 30.0625 46.125 C17.6043314 39.94178524 5.74098834 37.49986427 -8.0625 40.1875 C-12.41501367 41.91208089 -15.26569519 44.28139039 -17.375 48.5 C-17.8843655 52.75027934 -17.97046604 56.33613456 -16 60.1875 C-6.34715942 68.69119289 6.97780399 74.19712271 18.79150391 79.09472656 C34.19077321 85.51635952 49.90980892 96.02980336 57.7578125 111.26953125 C60.02723698 117.10665456 60.95983113 122.44492662 60.875 128.6875 C60.86158569 129.80668823 60.86158569 129.80668823 60.84790039 130.94848633 C60.54114039 145.7285964 56.76456651 158.38666415 46.625 169.5 C28.39744525 184.72536926 7.38766806 186.89000741 -15.375 186.5 C-16.63441406 186.48324219 -17.89382813 186.46648437 -19.19140625 186.44921875 C-33.19430247 185.8813145 -45.18832278 181.44393962 -57.5 175.0625 C-58.37664307 174.6082666 -59.25328613 174.1540332 -60.15649414 173.68603516 C-65.49973611 170.80348996 -69.90640217 167.6113522 -74.375 163.5 C-73.70543024 159.47886159 -71.65396314 156.27809138 -69.59375 152.8359375 C-69.22020386 152.20265533 -68.84665771 151.56937317 -68.46179199 150.91690063 C-67.27089116 148.90011163 -66.07315898 146.88748381 -64.875 144.875 C-63.67836341 142.85450482 -62.4831168 140.83319339 -61.28820801 138.81167603 C-60.54499443 137.5554944 -59.80048768 136.30007681 -59.05456543 135.04550171 C-57.13540238 131.81665625 -57.13540238 131.81665625 -55.375 128.5 C-51.9164804 129.11536723 -49.89329329 130.4378833 -47.125 132.5625 C-40.32931678 137.44532424 -32.95804925 141.01843486 -25.375 144.5 C-24.53839844 144.88671875 -23.70179688 145.2734375 -22.83984375 145.671875 C-14.00549199 149.17259009 -3.30161384 148.58209154 5.56640625 145.48046875 C9.58214572 143.567849 11.82155511 140.95385266 13.9375 137.125 C15.05872417 132.84396226 15.25552467 129.18139913 13.6875 125 C6.0305534 115.7188526 -5.29436469 111.45197915 -15.94042969 106.55493164 C-34.53388681 97.96098404 -49.57024642 87.7269657 -57.75 68.25 C-61.63530733 56.70787361 -59.83170502 43.60871925 -55.12109375 32.55859375 C-47.30921202 17.25411702 -33.95380516 7.32034581 -17.8359375 1.890625 C-11.88720962 0.16428438 -6.1650414 -0.03639503 0 0 Z " fill="#B6271B" transform="translate(503.375,239.5)"/>
<path d="M0 0 C33.99 0 67.98 0 103 0 C103 11.88 103 23.76 103 36 C82.54 36 62.08 36 41 36 C41 47.88 41 59.76 41 72 C60.47 72 79.94 72 100 72 C100 83.88 100 95.76 100 108 C80.86 108 61.72 108 42 108 C42 119.55 42 131.1 42 143 C62.13 143 82.26 143 103 143 C103 155.21 103 167.42 103 180 C69.01 180 35.02 180 0 180 C0 120.6 0 61.2 0 0 Z " fill="#B6271B" transform="translate(98,243)"/>
<path d="M0 0 C33.99 0 67.98 0 103 0 C103 11.88 103 23.76 103 36 C82.54 36 62.08 36 41 36 C41 47.88 41 59.76 41 72 C60.47 72 79.94 72 100 72 C100 83.88 100 95.76 100 108 C80.53 108 61.06 108 41 108 C41 119.88 41 131.76 41 144 C61.46 144 81.92 144 103 144 C103 155.88 103 167.76 103 180 C69.01 180 35.02 180 0 180 C0 120.6 0 61.2 0 0 Z " fill="#B6261A" transform="translate(950,243)"/>
<path d="M0 0 C1.18956883 4.15226856 0.78960563 6.38725993 -0.9375 10.3125 C-1.31777344 11.19550781 -1.69804687 12.07851563 -2.08984375 12.98828125 C-2.39019531 13.65214844 -2.69054687 14.31601562 -3 15 C-2.34 14.67 -1.68 14.34 -1 14 C3.23720693 13.57464332 6.83080311 13.31559206 10.5625 15.5 C11.036875 15.995 11.51125 16.49 12 17 C12.47179687 16.18595703 12.47179687 16.18595703 12.953125 15.35546875 C17.6344207 7.52980877 17.6344207 7.52980877 21 6 C24.25 6.3125 24.25 6.3125 27 7 C27.95751981 10.53545775 28.52395206 12.74206337 27.09375 16.17578125 C24.83821434 19.93729956 23.17813783 22.35008703 19 24 C16.375 24.25 16.375 24.25 14 24 C13.01 23.01 13.01 23.01 12 22 C11.3090625 22.46019531 10.618125 22.92039062 9.90625 23.39453125 C6.75903301 25.13311483 4.0041599 25.91380114 0.5 26.6875 C-0.6034375 26.93886719 -1.706875 27.19023438 -2.84375 27.44921875 C-5.65106911 27.93910983 -8.1611111 28.11122512 -11 28 C-11.37253906 29.18980469 -11.74507813 30.37960938 -12.12890625 31.60546875 C-14.58157038 38.96346114 -17.71454731 46.06127548 -20.73608398 53.19897461 C-27.60493924 68.4745749 -27.60493924 68.4745749 -30.75 84.75 C-30.83507812 86.25820312 -30.83507812 86.25820312 -30.921875 87.796875 C-30.94765625 88.52390625 -30.9734375 89.2509375 -31 90 C-22.99558526 88.35370193 -17.6534622 84.72987479 -13 78 C-9.05216631 70.21441163 -4.52223025 60.8126354 -4 52 C-4.82342532 49.68019054 -4.82342532 49.68019054 -6 48 C-2.20049715 42.45905834 2.05984654 36.37638781 8 33 C10.82540613 33.25609179 12.51512976 33.67675317 14.875 35.25 C16 37 16 37 15.71801758 39.21582031 C14.90778557 42.35757 13.82830462 45.27851814 12.63671875 48.296875 C11.92418945 50.10671875 11.92418945 50.10671875 11.19726562 51.953125 C10.82468628 52.88995117 10.82468628 52.88995117 10.44458008 53.84570312 C9.69598762 55.72865093 8.95390217 57.6140578 8.21289062 59.5 C5.86227358 65.4477255 3.47795464 71.35042011 0.74829102 77.13549805 C-0.4272024 80.06445179 -0.73333638 82.8667025 -1 86 C4.93087254 85.87644016 7.78132185 84.07278885 12.078125 80.05078125 C14.55347939 77.40939699 16.65480503 74.60117763 18.67578125 71.6015625 C20 70 20 70 23 69 C23.33 71.31 23.66 73.62 24 76 C24.99 76 25.98 76 27 76 C28.6875 78.5 28.6875 78.5 30 81 C37.90266627 80.73657779 44.3882204 78.4044148 51 74 C52.16037623 71.95831076 52.16037623 71.95831076 53 70 C51.95658447 69.89510254 51.95658447 69.89510254 50.89208984 69.78808594 C47.71768467 69.45917039 44.54660763 69.10483961 41.375 68.75 C40.28058594 68.64042969 39.18617188 68.53085938 38.05859375 68.41796875 C31.96479231 67.71625828 27.69387568 67.05956816 23 63 C20.75441411 60.14198159 20.38979804 56.8846266 20.50390625 53.2734375 C22.43441746 44.42652788 30.76791389 37.68399359 38 33 C57.50551286 21.83394587 57.50551286 21.83394587 68 23 C70.9375 24.5625 70.9375 24.5625 73 27 C73.62991486 30.40154025 73.79398888 32.67467256 71.97265625 35.71484375 C69.88541875 38.30961621 67.77013627 40.15324249 65 42 C62.66800612 42.07905064 60.33167378 42.08798769 58 42 C57.67 40.35 57.34 38.7 57 37 C48.00401197 39.96613922 38.21647442 44.73627815 33 53 C33 53.66 33 54.32 33 55 C33.6297876 55.07516846 34.2595752 55.15033691 34.90844727 55.2277832 C37.79456802 55.57850772 40.67842219 55.94536913 43.5625 56.3125 C44.55314453 56.43044922 45.54378906 56.54839844 46.56445312 56.66992188 C53.38727607 57.55394212 59.12229388 58.5539498 64.5 63.125 C66.33338286 66.63898382 66.51007036 68.72997712 65.84765625 72.6015625 C62.96388186 80.7611822 55.36818437 85.59990535 48.09375 89.55859375 C40.50814269 93.09279716 32.48528494 95.46274265 24.1875 93.25 C21.62198607 91.78399204 21.18240494 90.63232231 20 88 C19.27554688 88.55429688 18.55109375 89.10859375 17.8046875 89.6796875 C16.35449219 90.76636719 16.35449219 90.76636719 14.875 91.875 C13.44800781 92.95394531 13.44800781 92.95394531 11.9921875 94.0546875 C6.72558364 97.47866755 1.23279292 99.07204038 -5 98 C-8.25 96 -8.25 96 -11 94 C-15.33835002 94 -15.5592179 94.09642744 -18.4375 96.875 C-22.35015768 100.39722263 -25.11847698 101.82895245 -30.4375 102.3125 C-35.85157879 101.83758081 -39.31091196 99.87354245 -43 96 C-43.45890625 96.48210937 -43.9178125 96.96421875 -44.390625 97.4609375 C-45.00421875 98.09257812 -45.6178125 98.72421875 -46.25 99.375 C-46.85328125 100.00148438 -47.4565625 100.62796875 -48.078125 101.2734375 C-52.3043202 105.07014132 -56.03902409 105.5186061 -61.58984375 105.36328125 C-64 105 -64 105 -67 103.125 C-69.68469854 98.93015852 -70.36408203 94.88802615 -71 90 C-71.3403125 90.4846875 -71.680625 90.969375 -72.03125 91.46875 C-77.59211093 99.15930235 -83.66023064 106.97444091 -93 110 C-97.64886188 110.72137512 -99.33161655 110.42877429 -103.3125 107.875 C-108.09728733 102.7563903 -108.45941747 97.70625585 -108.3125 90.9296875 C-106.85038424 77.22235228 -97.75957356 65.14435688 -88 56 C-80.90016444 50.68939914 -74.12176226 46.19984542 -65 47 C-61.5625 48.5 -61.5625 48.5 -59 50 C-58.34 48.68 -57.68 47.36 -57 46 C-50.84765625 45.90234375 -50.84765625 45.90234375 -49 46 C-48.67 46.33 -48.34 46.66 -48 47 C-48.44362499 52.91499981 -50.30438594 57.99995437 -52.4375 63.5 C-56.86810755 74.87090333 -56.86810755 74.87090333 -58.125 86.9375 C-58.10695313 88.08089844 -58.08890625 89.22429687 -58.0703125 90.40234375 C-58.04710937 91.25957031 -58.02390625 92.11679688 -58 93 C-52.42679687 92.36029321 -50.33513677 89.79171451 -46.84765625 85.6328125 C-43.86259196 81.37925366 -42.50917305 76.93360184 -41 72 C-40.11841879 69.36898816 -39.22627723 66.74473792 -38.3125 64.125 C-38.06773926 63.42165527 -37.82297852 62.71831055 -37.57080078 61.99365234 C-35.36132918 55.77170343 -32.84811741 49.69370968 -30.25 43.625 C-29.86110596 42.71508301 -29.47221191 41.80516602 -29.0715332 40.86767578 C-27.54958489 37.35865633 -26.12860121 34.19290181 -24 31 C-24.6290625 31.2165625 -25.258125 31.433125 -25.90625 31.65625 C-31.51445928 33.48060724 -36.10968596 34.32723967 -42 34 C-42.75 31.875 -42.75 31.875 -43 29 C-40.72218671 24.61958982 -38.55068218 21.9364605 -34 20 C-28.37004836 18.63125029 -22.81160288 17.6858593 -17 18 C-16.79375 17.21625 -16.5875 16.4325 -16.375 15.625 C-13.16816082 7.17060581 -9.91264306 -0.44056191 0 0 Z " fill="#B72A1F" transform="translate(377,41)"/>
<path d="M0 0 C1.258125 0.04125 2.51625 0.0825 3.8125 0.125 C4.89285885 2.83730513 4.88615311 3.93132843 3.83129883 6.70507812 C3.05822388 8.1659082 3.05822388 8.1659082 2.26953125 9.65625 C1.69541504 10.76452148 1.12129883 11.87279297 0.52978516 13.01464844 C0.21906067 13.60306519 -0.09166382 14.19148193 -0.4118042 14.79772949 C-2.05080796 17.90706949 -3.64793323 21.03742382 -5.23828125 24.171875 C-5.56658936 24.81892395 -5.89489746 25.4659729 -6.2331543 26.13262939 C-9.80859512 33.25085961 -12.96692518 40.53794228 -16.0625 47.875 C-16.32461273 48.49544189 -16.58672546 49.11588379 -16.85678101 49.75512695 C-18.31232394 53.20681842 -19.75564319 56.66342057 -21.1875 60.125 C-18.74421106 57.69463851 -16.31417311 55.25760063 -13.93359375 52.765625 C-7.90330424 46.52106124 -1.55173042 40.76547396 5.8125 36.125 C6.8025 36.125 7.7925 36.125 8.8125 36.125 C10.45179155 39.40358311 10.56750326 42.60410278 9.8125 46.125 C7.94782884 48.72072402 5.5900252 50.50819841 3.0625 52.4375 C1.67857066 53.56503684 0.29577271 54.69396364 -1.0859375 55.82421875 C-1.77913086 56.37899902 -2.47232422 56.9337793 -3.18652344 57.50537109 C-20.54267576 71.55377452 -31.74807374 88.66099247 -42.00292969 108.30810547 C-43.1875 110.125 -43.1875 110.125 -46.1875 112.125 C-49.125 112.5 -49.125 112.5 -52.1875 112.125 C-54.86472052 110.04541673 -56.03559676 108.79771433 -56.7890625 105.4609375 C-56.88501822 93.3385315 -50.72343636 86.37332129 -43.05932617 77.67797852 C-37.86815151 71.77779217 -34.80096989 65.3724691 -31.5 58.3125 C-31.08427734 57.42884766 -30.66855469 56.54519531 -30.24023438 55.63476562 C-29.2202989 53.46593731 -28.20279905 51.29600164 -27.1875 49.125 C-27.652771 49.66729248 -28.11804199 50.20958496 -28.59741211 50.76831055 C-43.09728 67.60735051 -43.09728 67.60735051 -51.875 68.5 C-54.87710316 68.16013927 -56.67261024 67.73452944 -59.1875 66.125 C-59.1875 65.465 -59.1875 64.805 -59.1875 64.125 C-60.23550781 64.86556641 -60.23550781 64.86556641 -61.3046875 65.62109375 C-62.21476563 66.26175781 -63.12484375 66.90242188 -64.0625 67.5625 C-64.96742188 68.20058594 -65.87234375 68.83867188 -66.8046875 69.49609375 C-71.72863283 72.86213506 -76.33252873 72.7426487 -82.1875 72.125 C-85.90151023 70.00270844 -87.53154956 67.98888435 -89.1875 64.125 C-90.59090361 49.38926211 -82.52865122 35.91082315 -76.1875 23.125 C-81.36004558 27.1995274 -85.34262829 31.54618741 -89.1875 36.875 C-89.96830933 37.93932251 -89.96830933 37.93932251 -90.76489258 39.02514648 C-92.24754837 41.05245135 -93.71827018 43.08795701 -95.1875 45.125 C-95.85136719 46.02863281 -96.51523437 46.93226562 -97.19921875 47.86328125 C-101.14028264 53.32932557 -104.60989754 59.03899105 -107.99291992 64.86157227 C-110.13574061 68.51873677 -112.2661563 72.0232546 -115.1875 75.125 C-117.11194591 75.38594182 -119.04161651 75.63458277 -120.98046875 75.74609375 C-123.66486011 76.20695386 -125.37948617 77.2564517 -127.6875 78.6875 C-132.26319307 81.39203336 -134.89838378 81.89277493 -140.1875 81.125 C-144.350112 79.48164416 -148.23419016 77.26142084 -150.1875 73.125 C-150.58204062 67.02934734 -149.65611027 62.48403583 -147.5 56.8125 C-147.23251953 56.07555908 -146.96503906 55.33861816 -146.68945312 54.5793457 C-144.74727838 49.32388054 -142.49081745 44.28337266 -139.875 39.32421875 C-138.91422763 37.1235454 -138.91422763 37.1235454 -140.125 35.14453125 C-140.475625 34.47808594 -140.82625 33.81164062 -141.1875 33.125 C-140.71587663 26.27574248 -135.21352753 22.15102753 -130.625 17.5625 C-128.1875 16.125 -128.1875 16.125 -125 16.25 C-122.1875 17.125 -122.1875 17.125 -120.1875 19.125 C-120.51144931 24.35267638 -122.04532792 28.85165438 -124.05859375 33.6328125 C-124.34098404 34.32132294 -124.62337433 35.00983337 -124.9143219 35.71920776 C-125.81042344 37.89930361 -126.71743866 40.07465346 -127.625 42.25 C-128.23055703 43.71714298 -128.83538146 45.18458857 -129.43945312 46.65234375 C-130.54941058 49.34712682 -131.66381272 52.03997809 -132.78295898 54.73095703 C-133.24645752 55.85099121 -133.70995605 56.97102539 -134.1875 58.125 C-134.57687744 59.0413623 -134.96625488 59.95772461 -135.36743164 60.90185547 C-136.30108781 63.43292814 -136.34045401 65.44830476 -136.1875 68.125 C-133.14783278 68.65694176 -130.98596292 68.5653644 -128.25390625 67.05859375 C-119.67295967 60.38452419 -116.34891053 49.8989963 -112.2578125 40.19921875 C-111.86565552 39.27258171 -111.86565552 39.27258171 -111.46557617 38.32722473 C-110.13937647 35.19137821 -108.82612782 32.0513819 -107.53808594 28.8996582 C-101.68749661 14.87499831 -101.68749661 14.87499831 -96.1875 12.125 C-93.8545134 12.08477609 -91.52043334 12.08179753 -89.1875 12.125 C-89.7043349 17.12107067 -90.50900353 21.36243683 -92.1875 26.125 C-91.135625 24.91263672 -91.135625 24.91263672 -90.0625 23.67578125 C-77.21302491 9.09591321 -77.21302491 9.09591321 -68.9375 8.5625 C-65.1875 9.125 -65.1875 9.125 -62.625 10.6875 C-60.57179171 14.1690271 -61.38720442 16.21571737 -62.1875 20.125 C-63.46264648 23.37890625 -63.46264648 23.37890625 -65.05859375 26.6875 C-65.34098404 27.28248291 -65.62337433 27.87746582 -65.9143219 28.49047852 C-66.80903426 30.37303717 -67.71594387 32.24933111 -68.625 34.125 C-69.52903443 36.00128875 -70.43012399 37.87883046 -71.32496643 39.75952148 C-72.13785725 41.46646075 -72.96013342 43.16892124 -73.78295898 44.87109375 C-75.95540384 49.90400615 -77.52188056 54.60772084 -77.1875 60.125 C-75.49776274 61.01056744 -75.49776274 61.01056744 -73.1875 61.125 C-67.84916382 58.28545948 -63.4210018 54.56036015 -61.3515625 48.796875 C-60.86016235 47.07433254 -60.37864884 45.34894385 -59.90625 43.62109375 C-55.35823513 27.82662905 -41.14840197 14.08800821 -27.25 6.0625 C-21.82834823 3.33188706 -17.31485454 1.85859328 -11.1875 2.125 C-6.67814387 2.125 -4.45285759 -0.14599533 0 0 Z " fill="#B72A1E" transform="translate(652.1875,39.875)"/>
<path d="M0 0 C1.19310287 0.00842926 1.19310287 0.00842926 2.41030884 0.01702881 C3.66654808 0.01418129 3.66654808 0.01418129 4.94816589 0.01127625 C7.72462232 0.00756254 10.5008189 0.01828027 13.2772522 0.02947998 C15.20013905 0.03067146 17.12302649 0.03112501 19.0459137 0.03086853 C23.07854854 0.03243437 27.11109473 0.04073236 31.14370728 0.05413818 C36.32485114 0.07113956 41.50589759 0.07495226 46.68706608 0.074193 C50.65803465 0.0744643 54.62898172 0.07993884 58.59994316 0.08719444 C60.51100947 0.0903868 62.42207822 0.09234983 64.33314705 0.09308815 C66.99823321 0.09524509 69.66321391 0.1039749 72.32827759 0.11468506 C73.12570374 0.11423187 73.92312988 0.11377869 74.74472046 0.11331177 C80.19012142 0.14547421 80.19012142 0.14547421 81.30459595 1.25994873 C81.41399606 3.02878593 81.4536807 4.80198157 81.46572876 6.57415771 C81.4753363 7.70880966 81.48494385 8.84346161 81.49484253 10.01249695 C81.49909241 11.24786697 81.50334229 12.483237 81.50772095 13.75604248 C81.51342102 15.01505875 81.51912109 16.27407501 81.5249939 17.57124329 C81.53446102 20.24038311 81.54134912 22.90941 81.54483032 25.57855225 C81.55031881 29.00316423 81.57435064 32.42737934 81.60280228 35.85186672 C81.62587486 39.11156221 81.62787474 42.37127672 81.63272095 45.63104248 C81.64506775 46.86438828 81.65741455 48.09773407 81.6701355 49.36845398 C81.6671344 50.50625809 81.6641333 51.64406219 81.66104126 52.81634521 C81.6665097 54.32405739 81.6665097 54.32405739 81.67208862 55.86222839 C81.55081604 56.6534761 81.42954346 57.44472382 81.30459595 58.25994873 C77.60457072 60.72663222 74.78106462 60.54875358 70.50015259 60.53460693 C69.30944405 60.54227333 69.30944405 60.54227333 68.09468079 60.5500946 C65.46796145 60.56400634 62.84150402 60.56303266 60.2147522 60.56072998 C58.39016115 60.56461606 56.56557102 60.56895054 54.74098206 60.57371521 C50.91523304 60.58118083 47.0895763 60.58088368 43.26382446 60.57562256 C38.35977031 60.56982761 33.45609379 60.58675783 28.55210209 60.60996723 C24.78345021 60.624695 21.01488947 60.62557758 17.24621391 60.6224575 C15.43809702 60.6229712 13.62997509 60.62821805 11.82188606 60.63826942 C9.29381864 60.65059802 6.76648933 60.64386395 4.23843384 60.63226318 C3.11693436 60.64372879 3.11693436 60.64372879 1.97277832 60.65542603 C-1.08000186 60.62444293 -3.39371574 60.40536795 -6.16090393 59.0715332 C-8.24853265 56.60694183 -8.19073107 55.11248456 -8.1812439 51.90228271 C-8.18739716 50.80782333 -8.19355042 49.71336395 -8.19989014 48.58573914 C-8.1855191 47.40443924 -8.17114807 46.22313934 -8.15634155 45.00604248 C-8.15496689 43.18835106 -8.15496689 43.18835106 -8.15356445 41.3339386 C-8.14751881 38.77090541 -8.13174425 36.20787961 -8.10702515 33.6449585 C-8.07051788 29.7097182 -8.06600566 25.77541877 -8.0664978 21.84002686 C-8.05666726 19.35369055 -8.04501054 16.86736065 -8.03134155 14.38104248 C-8.02911591 13.19771835 -8.02689026 12.01439423 -8.02459717 10.79521179 C-8.01183746 9.70390457 -7.99907776 8.61259735 -7.9859314 7.48822021 C-7.9783078 6.52464096 -7.9706842 5.56106171 -7.96282959 4.56828308 C-7.38806655 -0.39289331 -4.25640156 0.02462809 0 0 Z " fill="#FEFDFD" transform="translate(787.6954040527344,508.74005126953125)"/>
<path d="M0 0 C-0.59639414 3.53761253 -1.53188943 6.4906913 -3.0546875 9.734375 C-3.49570801 10.68159424 -3.93672852 11.62881348 -4.39111328 12.60473633 C-4.8807959 13.64267334 -5.37047852 14.68061035 -5.875 15.75 C-6.95323043 18.06114873 -8.03134704 20.37235057 -9.109375 22.68359375 C-9.72189304 23.99207725 -10.3345287 25.3005057 -10.94726562 26.60888672 C-14.5961545 34.40691536 -18.21340026 42.21969594 -21.83453369 50.03063965 C-23.11322069 52.78710732 -24.39408854 55.54255325 -25.67529297 58.29785156 C-26.47368756 60.01755271 -27.27202974 61.73727819 -28.0703125 63.45703125 C-28.43755432 64.24562027 -28.80479614 65.03420929 -29.1831665 65.84669495 C-30.89087352 69.52988447 -32.54475172 73.20740634 -34 77 C-27.86044287 75.7214099 -27.86044287 75.7214099 -21.875 73.875 C-16.16331545 72.13666122 -11.48571678 72.85923248 -6 75 C-6 76.32 -6 77.64 -6 79 C-9.96 80.65 -13.92 82.3 -18 84 C-18.16537965 86.21447673 -18.16537965 86.21447673 -16.5 88.625 C-13.91724044 94.436209 -14.5465307 99.74687373 -16.67456055 105.62939453 C-16.92633057 106.26731934 -17.17810059 106.90524414 -17.4375 107.5625 C-17.70409424 108.24940918 -17.97068848 108.93631836 -18.24536133 109.64404297 C-25.56533761 127.71749669 -42.09519991 153.92350728 -60 163 C-63.11614041 164.00893585 -65.74320754 164.43341344 -69 164 C-72.0625 162.3125 -72.0625 162.3125 -74 159 C-77.78312967 139.70916522 -63.46590196 116.26336437 -56 99 C-56.78375 98.731875 -57.5675 98.46375 -58.375 98.1875 C-61 97 -61 97 -63 94 C-62.73538088 90.16302283 -60.77421963 86.60877653 -58 84 C-56.2590852 83.34602399 -54.50136485 82.73609123 -52.734375 82.15625 C-46.35243059 79.341732 -44.6242683 75.60861794 -42.07104492 69.31494141 C-41.58899262 68.02247486 -41.10697859 66.72999404 -40.625 65.4375 C-40.09091188 64.09631664 -39.55216994 62.75697814 -39.0090332 61.41943359 C-38.16982982 59.352068 -37.3332275 57.28411086 -36.51014709 55.21026611 C-33.66663804 48.05609194 -30.46194413 41.09034113 -27.1875 34.125 C-26.64287109 32.96532715 -26.09824219 31.8056543 -25.53710938 30.61083984 C-24.49880376 28.40618787 -23.45807764 26.20267369 -22.41455078 24.00048828 C-21.14101019 21.29910515 -19.89314353 18.58761518 -18.65234375 15.87109375 C-17.97785759 14.43428716 -17.30219808 12.99803039 -16.625 11.5625 C-15.80902344 9.80099609 -15.80902344 9.80099609 -14.9765625 8.00390625 C-11.7124575 3.04324074 -6.17756186 -2.05918729 0 0 Z " fill="#B72B1F" transform="translate(508,9)"/>
<path d="M0 0 C1.33417969 -0.01836914 1.33417969 -0.01836914 2.6953125 -0.03710938 C11.09566875 -0.05591614 11.09566875 -0.05591614 15 2.1875 C16.54586876 5.27923752 16.29359521 7.78179552 16 11.1875 C11.29170525 17.19928447 3.15614937 18.54849863 -4.07421875 19.66015625 C-6.38452835 19.89415337 -8.68056239 20.08278498 -11 20.1875 C-11 18.5375 -11 16.8875 -11 15.1875 C-16.61881918 15.69697842 -20.77377169 17.20653897 -25.75 19.8125 C-26.4510083 20.17512939 -27.1520166 20.53775879 -27.87426758 20.91137695 C-29.92582274 21.98642667 -31.96464125 23.08214761 -34 24.1875 C-34.99902344 24.72503906 -35.99804688 25.26257813 -37.02734375 25.81640625 C-42.70718911 29.14424516 -47.46312069 33.20508429 -52.1875 37.75 C-52.7652417 38.29229248 -53.3429834 38.83458496 -53.93823242 39.39331055 C-56.7812917 42.24675069 -57.92234294 43.46019574 -58.36328125 47.58984375 C-58.24339844 48.44707031 -58.12351563 49.30429688 -58 50.1875 C-50.48168094 52.74883638 -43.10775031 53.98232958 -35.25 55 C-22.89354054 56.75575757 -11.85292611 58.70659816 -3 68.1875 C-2.401875 68.765 -1.80375 69.3425 -1.1875 69.9375 C0.7760015 73.65781864 0.69004167 77.08558562 0 81.1875 C-4.89085397 94.26859354 -14.8697483 102.47092789 -27.25 108.4375 C-39.63028097 113.79880382 -51.96520334 117.3533022 -65.5 117.4375 C-66.32886719 117.458125 -67.15773437 117.47875 -68.01171875 117.5 C-74.36517741 117.54040355 -78.62482198 116.43766865 -83.375 111.9375 C-85.48857708 108.36067725 -85.58503686 106.28275799 -85 102.1875 C-83.18391731 99.20393559 -82.06169578 97.57089014 -78.75 96.375 C-78.1725 96.313125 -77.595 96.25125 -77 96.1875 C-76.67 97.5075 -76.34 98.8275 -76 100.1875 C-62.59465837 105.06216968 -49.61919783 101.05963817 -37.11328125 95.5078125 C-30.62397729 92.4744915 -25.2384427 89.06877615 -20 84.1875 C-19.34 84.1875 -18.68 84.1875 -18 84.1875 C-16.14223235 81.05251708 -15.79859524 78.81278568 -16 75.1875 C-25.05353175 71.69089529 -34.21287623 70.87693823 -43.80859375 69.81445312 C-54.24018289 68.55655716 -64.41140913 66.97067012 -72 59.1875 C-75.07943536 54.25826492 -74.67829364 48.79048806 -74 43.1875 C-72.8112879 39.78587297 -71.12638918 37.08266065 -69 34.1875 C-68.53851563 33.53394531 -68.07703125 32.88039062 -67.6015625 32.20703125 C-52.7872429 13.36953348 -23.63345993 0.0171257 0 0 Z " fill="#B72A1E" transform="translate(264,43.8125)"/>
<path d="M0 0 C18 0 18 0 22.4375 4.375 C23.32951232 5.94913939 24.21721675 7.52722684 25.03222656 9.14257812 C26.51161035 11.98192017 28.22731418 14.66556473 29.92016602 17.38134766 C31.23741278 19.504002 32.52048239 21.64398957 33.80078125 23.7890625 C38.3983293 31.27762062 43.22630939 38.62247814 48 46 C48.33 30.82 48.66 15.64 49 0 C54.61 0 60.22 0 66 0 C66 25.41 66 50.82 66 77 C60.39 77 54.78 77 49 77 C45.51263437 73.37515168 44.10256422 71.32248414 42 67 C40.70950278 64.96633836 39.39602231 62.94711833 38.0625 60.94140625 C36.70612779 58.81651041 35.35198367 56.69019078 34 54.5625 C33.32710937 53.50740234 32.65421875 52.45230469 31.9609375 51.36523438 C29.97164049 48.24495673 27.9855371 45.1226715 26 42 C23.69 38.37 21.38 34.74 19 31 C18.67 46.18 18.34 61.36 18 77 C12.06 77 6.12 77 0 77 C0 51.59 0 26.18 0 0 Z " fill="#B6281C" transform="translate(616,503)"/>
<path d="M0 0 C35 0 35 0 45 5 C51.17923792 11.39605329 52.30595206 15.06687309 52.31469727 23.82568359 C52.18895607 30.4520216 51.03473132 34.93768021 46.28125 39.734375 C43.64942347 42.07625454 40.93286054 44.04475964 38 46 C38.83402344 46.95519531 39.66804688 47.91039062 40.52734375 48.89453125 C59.13036818 70.24617055 59.13036818 70.24617055 63 77 C44.00878363 78.94347268 44.00878363 78.94347268 37.734375 74.890625 C35.64911257 72.33583328 33.86183998 69.7706561 32.1953125 66.92675781 C30.35842126 63.9658212 28.19165488 61.27828927 26.05322266 58.53125 C19 49.46897731 19 49.46897731 19 47 C18.34 47 17.68 47 17 47 C17 56.9 17 66.8 17 77 C11.39 77 5.78 77 0 77 C0 51.59 0 26.18 0 0 Z " fill="#B6271B" transform="translate(151,503)"/>
<path d="M0 0 C3.21508597 2.47386938 6.15727137 5.10813778 9 8 C5.43679155 13.09210286 1.95258714 17.22660027 -3 21 C-3.66 20.2575 -4.32 19.515 -5 18.75 C-9.33844553 14.46043836 -13.93482695 12.32780525 -19.9375 11.375 C-25.26208201 11.71040674 -29.20328756 14.41261201 -33 18 C-38.20731842 24.50309301 -38.72498197 31.37908962 -38.4140625 39.50390625 C-37.51722096 47.07629474 -34.44504244 51.17613411 -28.5859375 55.87109375 C-24.15671303 59.0239161 -19.23762563 58.59999755 -14 58 C-10.72044068 56.90503313 -8.36202864 55.53570722 -6 53 C-4.50549172 49.98068935 -3.79112849 47.31285055 -3 44 C-8.94 44 -14.88 44 -21 44 C-21 39.71 -21 35.42 -21 31 C-9.12 31 2.76 31 15 31 C15.602719 45.06344333 15.53955014 54.9182089 5.8125 65.9375 C-3.41086446 74.37677531 -15.04751281 75.69181624 -26.95019531 75.16601562 C-36.29158836 74.40944735 -42.8287203 68.61893729 -49 62 C-57.91954909 51.08998311 -59.34938623 39.70709074 -58 26 C-55.91679792 15.54678955 -49.50692499 7.20296614 -41 1 C-29.7029408 -6.2764901 -11.71736223 -7.00348087 0 0 Z " fill="#B6281C" transform="translate(377,506)"/>
<path d="M0 0 C5.61 0 11.22 0 17 0 C17 10.23 17 20.46 17 31 C25.25 31 33.5 31 42 31 C42 20.77 42 10.54 42 0 C47.94 0 53.88 0 60 0 C60 25.41 60 50.82 60 77 C54.06 77 48.12 77 42 77 C42 66.77 42 56.54 42 46 C33.75 46 25.5 46 17 46 C17 56.23 17 66.46 17 77 C11.39 77 5.78 77 0 77 C0 51.59 0 26.18 0 0 Z " fill="#B6271C" transform="translate(407,503)"/>
<path d="M0 0 C1.24317993 0.0002417 1.24317993 0.0002417 2.51147461 0.00048828 C10.00140459 0.1381575 19.33545871 0.83545871 24.875 6.375 C24.51305683 10.23792072 23.08749765 13.27404299 21.3125 16.6875 C20.85746094 17.57050781 20.40242187 18.45351563 19.93359375 19.36328125 C19.40958984 20.35908203 19.40958984 20.35908203 18.875 21.375 C17.699375 20.88 16.52375 20.385 15.3125 19.875 C6.94619535 17.13021866 -2.63920012 16.76399871 -10.75 20.4375 C-16.07754657 23.54892903 -19.15889807 27.47669422 -21.125 33.375 C-21.79566628 40.7963072 -21.76327857 47.2813085 -17.125 53.375 C-12.55177374 58.33578781 -8.20499662 61.05760281 -1.36328125 61.58984375 C5.19358677 61.79551715 9.89063394 60.98635973 15.875 58.375 C16.865 58.375 17.855 58.375 18.875 58.375 C19.91044174 60.28381434 20.92790085 62.20239204 21.9375 64.125 C22.50597656 65.19234375 23.07445312 66.2596875 23.66015625 67.359375 C24.875 70.375 24.875 70.375 24.859375 72.62890625 C23.42118569 75.17998015 21.78325132 75.58653503 19.0625 76.5625 C18.18980469 76.88605469 17.31710937 77.20960938 16.41796875 77.54296875 C6.12173084 80.91178392 -6.74951001 81.01407206 -16.7421875 76.62890625 C-27.0945701 71.18117704 -35.73137001 63.78650063 -40.265625 52.71484375 C-43.28472304 40.98153091 -42.25092966 29.79005226 -36.17578125 19.33203125 C-27.42615188 6.715899 -15.37069843 -0.02800613 0 0 Z " fill="#B6281D" transform="translate(739.125,501.625)"/>
<path d="M0 0 C14.52 0 29.04 0 44 0 C44 4.95 44 9.9 44 15 C35.09 15 26.18 15 17 15 C17 20.28 17 25.56 17 31 C25.58 31 34.16 31 43 31 C43 35.95 43 40.9 43 46 C34.42 46 25.84 46 17 46 C17 51.28 17 56.56 17 62 C25.91 62 34.82 62 44 62 C44 66.95 44 71.9 44 77 C29.48 77 14.96 77 0 77 C0 51.59 0 26.18 0 0 Z " fill="#B6261A" transform="translate(225,503)"/>
<path d="M0 0 C14.52 0 29.04 0 44 0 C44 4.95 44 9.9 44 15 C35.09 15 26.18 15 17 15 C17 20.28 17 25.56 17 31 C25.25 31 33.5 31 42 31 C42 35.95 42 40.9 42 46 C33.75 46 25.5 46 17 46 C17 56.23 17 66.46 17 77 C11.39 77 5.78 77 0 77 C0 51.59 0 26.18 0 0 Z " fill="#B6261A" transform="translate(91,503)"/>
<path d="M0 0 C17.82 0 35.64 0 54 0 C54 4.95 54 9.9 54 15 C48.06 15 42.12 15 36 15 C36 35.46 36 55.92 36 77 C30.39 77 24.78 77 19 77 C19 56.54 19 36.08 19 15 C12.73 15 6.46 15 0 15 C0 10.05 0 5.1 0 0 Z " fill="#B6261A" transform="translate(480,503)"/>
<path d="M0 0 C6.30195877 3.7185471 11.23632072 9.33396215 13.5625 16.3125 C14.27576703 24.0999728 13.81078427 30.61698401 9.5625 37.3125 C4.98562273 42.57590886 0.08142359 46.65305647 -6.98046875 47.68359375 C-14.79654626 47.87986158 -21.1339649 46.16194506 -27.06640625 40.85546875 C-33.05433636 34.08106424 -34.05457739 27.78144045 -33.83984375 19.01171875 C-33.00343409 11.32162218 -29.71696755 7.09001371 -23.8125 2.3125 C-16.97887884 -2.72525485 -7.81252905 -3.69753283 0 0 Z " fill="#B72B1F" transform="translate(914.4375,520.6875)"/>
<path d="M0 0 C1.19310287 0.00842926 1.19310287 0.00842926 2.41030884 0.01702881 C3.66654808 0.01418129 3.66654808 0.01418129 4.94816589 0.01127625 C7.72462232 0.00756254 10.5008189 0.01828027 13.2772522 0.02947998 C15.20013905 0.03067146 17.12302649 0.03112501 19.0459137 0.03086853 C23.07854854 0.03243437 27.11109473 0.04073236 31.14370728 0.05413818 C36.32485114 0.07113956 41.50589759 0.07495226 46.68706608 0.074193 C50.65803465 0.0744643 54.62898172 0.07993884 58.59994316 0.08719444 C60.51100947 0.0903868 62.42207822 0.09234983 64.33314705 0.09308815 C66.99823321 0.09524509 69.66321391 0.1039749 72.32827759 0.11468506 C73.12570374 0.11423187 73.92312988 0.11377869 74.74472046 0.11331177 C80.19012142 0.14547421 80.19012142 0.14547421 81.30459595 1.25994873 C81.41399606 3.02878593 81.4536807 4.80198157 81.46572876 6.57415771 C81.4753363 7.70880966 81.48494385 8.84346161 81.49484253 10.01249695 C81.49909241 11.24786697 81.50334229 12.483237 81.50772095 13.75604248 C81.51342102 15.01505875 81.51912109 16.27407501 81.5249939 17.57124329 C81.53446102 20.24038311 81.54134912 22.90941 81.54483032 25.57855225 C81.55031881 29.00316423 81.57435064 32.42737934 81.60280228 35.85186672 C81.62587486 39.11156221 81.62787474 42.37127672 81.63272095 45.63104248 C81.64506775 46.86438828 81.65741455 48.09773407 81.6701355 49.36845398 C81.6671344 50.50625809 81.6641333 51.64406219 81.66104126 52.81634521 C81.6665097 54.32405739 81.6665097 54.32405739 81.67208862 55.86222839 C81.55081604 56.6534761 81.42954346 57.44472382 81.30459595 58.25994873 C77.60457072 60.72663222 74.78106462 60.54875358 70.50015259 60.53460693 C69.30944405 60.54227333 69.30944405 60.54227333 68.09468079 60.5500946 C65.46796145 60.56400634 62.84150402 60.56303266 60.2147522 60.56072998 C58.39016115 60.56461606 56.56557102 60.56895054 54.74098206 60.57371521 C50.91523304 60.58118083 47.0895763 60.58088368 43.26382446 60.57562256 C38.35977031 60.56982761 33.45609379 60.58675783 28.55210209 60.60996723 C24.78345021 60.624695 21.01488947 60.62557758 17.24621391 60.6224575 C15.43809702 60.6229712 13.62997509 60.62821805 11.82188606 60.63826942 C9.29381864 60.65059802 6.76648933 60.64386395 4.23843384 60.63226318 C3.11693436 60.64372879 3.11693436 60.64372879 1.97277832 60.65542603 C-1.08000186 60.62444293 -3.39371574 60.40536795 -6.16090393 59.0715332 C-8.24853265 56.60694183 -8.19073107 55.11248456 -8.1812439 51.90228271 C-8.18739716 50.80782333 -8.19355042 49.71336395 -8.19989014 48.58573914 C-8.1855191 47.40443924 -8.17114807 46.22313934 -8.15634155 45.00604248 C-8.15496689 43.18835106 -8.15496689 43.18835106 -8.15356445 41.3339386 C-8.14751881 38.77090541 -8.13174425 36.20787961 -8.10702515 33.6449585 C-8.07051788 29.7097182 -8.06600566 25.77541877 -8.0664978 21.84002686 C-8.05666726 19.35369055 -8.04501054 16.86736065 -8.03134155 14.38104248 C-8.02911591 13.19771835 -8.02689026 12.01439423 -8.02459717 10.79521179 C-8.01183746 9.70390457 -7.99907776 8.61259735 -7.9859314 7.48822021 C-7.9783078 6.52464096 -7.9706842 5.56106171 -7.96282959 4.56828308 C-7.38806655 -0.39289331 -4.25640156 0.02462809 0 0 Z M-3.69540405 4.25994873 C-3.69540405 18.44994873 -3.69540405 32.63994873 -3.69540405 47.25994873 C23.36459595 47.25994873 50.42459595 47.25994873 78.30459595 47.25994873 C78.30459595 33.06994873 78.30459595 18.87994873 78.30459595 4.25994873 C51.24459595 4.25994873 24.18459595 4.25994873 -3.69540405 4.25994873 Z " fill="#BA3327" transform="translate(787.6954040527344,508.74005126953125)"/>
<path d="M0 0 C24.95954106 0 24.95954106 0 32.4453125 6.4296875 C36.56792087 10.59372912 37.52631992 14.221103 38 20 C38.07605469 20.76570313 38.15210938 21.53140625 38.23046875 22.3203125 C38.63040442 29.21650056 36.9214205 34.31602614 33 40 C24.08432262 48.27884329 11.31023152 47 0 47 C0 31.49 0 15.98 0 0 Z " fill="#FDFBFB" transform="translate(819,276)"/>
<path d="M0 0 C5.94 0 11.88 0 18 0 C18 25.41 18 50.82 18 77 C12.06 77 6.12 77 0 77 C0 51.59 0 26.18 0 0 Z " fill="#B72A1F" transform="translate(286,503)"/>
<path d="M0 0 C3.63 0 7.26 0 11 0 C14.00261025 3.37793654 15.80354455 6.12575927 18 10 C19.40250611 12.20451247 20.83199763 14.38975081 22.26733398 16.57299805 C24.53291071 20.03478339 26.76275339 23.51983861 29 27 C29.33 18.09 29.66 9.18 30 0 C33.63 0 37.26 0 41 0 C41 15.51 41 31.02 41 47 C30 47 30 47 27.52734375 45.15625 C27.00269531 44.2796875 26.47804688 43.403125 25.9375 42.5 C25.31746094 41.51386719 24.69742187 40.52773438 24.05859375 39.51171875 C23.73616699 38.95919434 23.41374023 38.40666992 23.08154297 37.83740234 C21.45862172 35.08026796 19.72432855 32.39562864 18.00415039 29.69848633 C15.97649044 26.4820733 13.99272274 23.23817445 12 20 C11.67 28.91 11.34 37.82 11 47 C7.37 47 3.74 47 0 47 C0 31.49 0 15.98 0 0 Z " fill="#B72B20" transform="translate(1030,520)"/>
<path d="M0 0 C11 0 11 0 13.98046875 2.82421875 C14.75672789 4.0879313 15.49121012 5.37802375 16.1875 6.6875 C16.58694824 7.3585376 16.98639648 8.0295752 17.39794922 8.72094727 C18.22066644 10.10840552 19.02700764 11.50570164 19.81689453 12.91210938 C21.28865355 15.50940263 22.86284907 18.03355187 24.45288086 20.55957031 C25.99189107 23.02532047 27.49225319 25.51500989 29 28 C29.33 18.76 29.66 9.52 30 0 C33.3 0 36.6 0 40 0 C40 15.51 40 31.02 40 47 C36.37 47 32.74 47 29 47 C26.14939561 43.86496723 24.53946735 41.6401844 22.625 38 C22.14417969 37.16082031 21.66335938 36.32164062 21.16796875 35.45703125 C20.25785812 33.86618746 19.36435154 32.26562236 18.49462891 30.65234375 C16.45299629 27.02929626 14.20410348 23.52656557 12 20 C11.67 28.91 11.34 37.82 11 47 C7.37 47 3.74 47 0 47 C0 31.49 0 15.98 0 0 Z " fill="#B6281C" transform="translate(933,520)"/>
<path d="M0 0 C5.61 0 11.22 0 17 0 C17 25.41 17 50.82 17 77 C11.39 77 5.78 77 0 77 C0 51.59 0 26.18 0 0 Z " fill="#B6261A" transform="translate(581,503)"/>
<path d="M0 0 C8.91 0 17.82 0 27 0 C27 2.97 27 5.94 27 9 C21.72 9 16.44 9 11 9 C11 12.3 11 15.6 11 19 C16.28 19 21.56 19 27 19 C27 21.97 27 24.94 27 28 C21.72 28 16.44 28 11 28 C11 31.3 11 34.6 11 38 C16.28 38 21.56 38 27 38 C27 40.97 27 43.94 27 47 C18.09 47 9.18 47 0 47 C0 31.49 0 15.98 0 0 Z " fill="#B72B1F" transform="translate(1077,520)"/>
<path d="M0 0 C2.46555736 2.64753897 3.48622605 4.6418773 3.625 8.25 C2.91086141 27.00987148 -13.93307489 46.77124936 -27 59 C-29.3125 60.31640625 -29.3125 60.31640625 -31 61 C-32.62300436 56.12138333 -31.13591356 52.3686014 -29.4375 47.75 C-29.13666504 46.91605713 -28.83583008 46.08211426 -28.52587891 45.22290039 C-25.47710812 36.97170014 -22.17405734 28.81534885 -18.806427 20.68981934 C-18.18704357 19.19206453 -17.57249014 17.69230291 -16.96286011 16.19055176 C-16.09302045 14.05605203 -15.20200883 11.93166227 -14.3046875 9.80859375 C-14.04642685 9.16564865 -13.7881662 8.52270355 -13.52207947 7.86027527 C-10.83325162 1.63148776 -6.81953749 -1.0377557 0 0 Z " fill="#FDF9F9" transform="translate(477,99)"/>
<path d="M0 0 C3.63 0 7.26 0 11 0 C11 12.54 11 25.08 11 38 C16.28 38 21.56 38 27 38 C27 40.97 27 43.94 27 47 C18.09 47 9.18 47 0 47 C0 31.49 0 15.98 0 0 Z " fill="#B7291D" transform="translate(980,520)"/>
<path d="M0 0 C3.38624249 2.72780645 5.03729224 5.38869943 5.68359375 9.71484375 C5.69174898 16.05145431 5.62522746 20.06225304 1.25 24.8125 C-2.80366375 27.5149425 -5.99531551 27.33986817 -10.75 26.8125 C-14.23133993 25.45023655 -15.44286083 24.25732224 -17.5625 21.1875 C-19.35185824 16.10195553 -19.94587482 11.58863797 -17.765625 6.52734375 C-13.62919899 -0.50713381 -8.15291981 -3.52057901 0 0 Z " fill="#FDF9F9" transform="translate(910.75,530.1875)"/>
<path d="M0 0 C3.3 0 6.6 0 10 0 C10 15.51 10 31.02 10 47 C6.7 47 3.4 47 0 47 C0 31.49 0 15.98 0 0 Z " fill="#B6261A" transform="translate(1013,520)"/>
<path d="M0 0 C0.66 0.33 1.32 0.66 2 1 C-21.93103251 40.97157275 -21.93103251 40.97157275 -35 45 C-35.42465933 39.04704826 -34.24401812 35.33117896 -31.5625 30.1875 C-31.20486572 29.48898926 -30.84723145 28.79047852 -30.47875977 28.07080078 C-27.17110478 21.86814172 -23.10257244 16.84327656 -18 12 C-17.40316406 11.41863281 -16.80632813 10.83726563 -16.19140625 10.23828125 C-11.37748791 5.8245963 -5.80798607 2.90399304 0 0 Z " fill="#FCF8F7" transform="translate(637,51)"/>
<path d="M0 0 C-4.72628783 15.75429278 -16.03096312 28.20882623 -27 40 C-27.51949219 40.58910156 -28.03898437 41.17820313 -28.57421875 41.78515625 C-30 43 -30 43 -33 43 C-33.39475667 36.66979484 -32.47069489 32.68635371 -29.5 27.125 C-28.95641846 26.08291382 -28.95641846 26.08291382 -28.40185547 25.01977539 C-23.06270379 15.07499893 -12.87144224 0 0 0 Z " fill="#FCF7F6" transform="translate(314,96)"/>
<path d="M0 0 C9.95685159 -0.47984827 9.95685159 -0.47984827 14.125 1.4375 C16.81957633 5.12008765 17.28225565 8.48390963 17 13 C15.26702149 17.28684157 14.26020071 17.86989964 10 20 C6.7 20 3.4 20 0 20 C0 13.4 0 6.8 0 0 Z " fill="#FBF5F4" transform="translate(168,517)"/>
<path d="M0 0 C0.86785126 -0.01606293 1.73570251 -0.03212585 2.62985229 -0.04867554 C6.59567503 -0.09309588 10.56133057 -0.13417921 14.52734375 -0.15722656 C16.62055569 -0.17380067 18.7137107 -0.20110969 20.80664062 -0.23925781 C23.82207643 -0.29394558 26.83618629 -0.31588677 29.85205078 -0.33056641 C30.78757782 -0.35323578 31.72310486 -0.37590515 32.6869812 -0.39926147 C33.99821457 -0.39498642 33.99821457 -0.39498642 35.3359375 -0.390625 C36.48604813 -0.40275528 36.48604813 -0.40275528 37.65939331 -0.41513062 C39.79736328 0.19287109 39.79736328 0.19287109 43.79736328 5.19287109 C26.63736328 5.19287109 9.47736328 5.19287109 -8.20263672 5.19287109 C-5.77598336 0.33956437 -5.01974846 0.08437052 0 0 Z " fill="#B72A1E" transform="translate(807.20263671875,576.80712890625)"/>
<path d="M0 0 C4.0553591 1.35178637 5.39946313 2.33855434 7.375 6.125 C7.375 10.04516134 6.92726285 12.29660572 4.75 15.5625 C1.37262021 17.78446039 -0.66023594 17.75101538 -4.625 17.125 C-8.30851539 14.53870196 -9.44227257 13.05524874 -10.3125 8.625 C-9.625 5.125 -9.625 5.125 -7.0625 2.125 C-3.625 0.125 -3.625 0.125 0 0 Z " fill="#F4DFDD" transform="translate(794.625,537.875)"/>
<path d="M0 0 C3.27522945 2.15475621 3.90229594 3.6641423 5 7.4375 C5 11 5 11 3.5 13.875 C0.28378219 16.60878514 -1.81480553 16.92526438 -6 17 C-9.39808026 15.89791992 -9.94731917 15.07902124 -12 12 C-12.56551375 7.63746537 -12.49322651 5.70247412 -9.9375 2.0625 C-6.25937488 -0.52001338 -4.40768137 -0.72125695 0 0 Z " fill="#F6E6E5" transform="translate(845,524)"/>
<path d="M0 0 C3.4375 0.5625 3.4375 0.5625 5.8125 2.125 C7.92723588 5.29710383 8.29735901 7.77869329 8.4375 11.5625 C7.7775 12.2225 7.1175 12.8825 6.4375 13.5625 C6.4375 12.2425 6.4375 10.9225 6.4375 9.5625 C4.72909719 11.19662443 3.50296953 12.43156094 2.4375 14.5625 C1.4475 14.5625 0.4575 14.5625 -0.5625 14.5625 C1.0875 14.8925 2.7375 15.2225 4.4375 15.5625 C1.4375 17.5625 1.4375 17.5625 -1.5625 17.375 C-4.60692863 16.55046725 -5.69329783 16.02197654 -7.5625 13.5625 C-9.00680855 10.67388291 -8.93938506 8.76602299 -8.5625 5.5625 C-5.92388121 1.88442532 -4.50182231 0.71081405 0 0 Z " fill="#EECDCA" transform="translate(807.5625,523.4375)"/>
<path d="M0 0 C2 2 2 2 2.4375 4.625 C1.84875934 9.16671366 -0.02820722 12.52769475 -3 16 C-5.63148938 17.64660446 -6.55376211 18.05188813 -9.6875 17.6875 C-12 17 -12 17 -13 16 C-13.55910632 10.2971155 -12.61852911 7.42264669 -9 3 C-6.05792676 0.15283235 -4.08482245 -0.53747664 0 0 Z " fill="#B82D22" transform="translate(542,29)"/>
<path d="M0 0 C2.81831785 2.59581908 3.85564038 4.23008205 4.5625 8 C3.78698584 12.13607554 2.38677089 13.54999553 -1 16 C-4.8125 16.3125 -4.8125 16.3125 -8 16 C-8.3449145 14.66961551 -8.67516582 13.33542939 -9 12 C-9.226875 11.195625 -9.45375 10.39125 -9.6875 9.5625 C-10.064247 6.47317461 -9.34306673 4.76513739 -8 2 C-8.66 1.67 -9.32 1.34 -10 1 C-6.42600939 -1.33684001 -4.04178885 -1.26305902 0 0 Z " fill="#F2D8D6" transform="translate(829,516)"/>
<path d="M0 0 C5.61 0 11.22 0 17 0 C17.66 1.98 18.32 3.96 19 6 C12.4 6 5.8 6 -1 6 C-0.67 4.02 -0.34 2.04 0 0 Z " fill="#BC392E" transform="translate(816,570)"/>
<path d="M0 0 C2.64 0.33 5.28 0.66 8 1 C8 1.99 8 2.98 8 4 C8.66 2.68 9.32 1.36 10 0 C10 4.29 10 8.58 10 13 C6.7 13 3.4 13 0 13 C0 8.71 0 4.42 0 0 Z " fill="#B6261A" transform="translate(851,541)"/>
<path d="M0 0 C4.62 0 9.24 0 14 0 C13.34 2.97 12.68 5.94 12 9 C10.68 8.67 9.36 8.34 8 8 C5.66699067 7.96111651 3.33290199 7.9551365 1 8 C0.67 5.36 0.34 2.72 0 0 Z " fill="#E2A9A4" transform="translate(815,541)"/>
<path d="M0 0 C1.48831242 0.00667405 2.97660807 0.01863442 4.46484375 0.03515625 C5.22345703 0.03966797 5.98207031 0.04417969 6.76367188 0.04882812 C8.64326246 0.06064945 10.52281274 0.07858547 12.40234375 0.09765625 C12.73234375 1.74765625 13.06234375 3.39765625 13.40234375 5.09765625 C7.46234375 5.09765625 1.52234375 5.09765625 -4.59765625 5.09765625 C-4.59765625 0.12480066 -4.59765625 0.12480066 0 0 Z " fill="#D88A84" transform="translate(820.59765625,559.90234375)"/>
<path d="M0 0 C0 4.62 0 9.24 0 14 C-0.33 14 -0.66 14 -1 14 C-1 11.36 -1 8.72 -1 6 C-3.31 6 -5.62 6 -8 6 C-8 5.67 -8 5.34 -8 5 C-5.69 5 -3.38 5 -1 5 C-1 4.34 -1 3.68 -1 3 C-3.31 3 -5.62 3 -8 3 C-8.33 6.63 -8.66 10.26 -9 14 C-9.66 14 -10.32 14 -11 14 C-12.88646445 11.22578757 -12.99303187 9.86760546 -12.8125 6.4375 C-11.73913043 1.89632107 -11.73913043 1.89632107 -9 0 C-6 -1 -6 -1 0 0 Z " fill="#F7E8E7" transform="translate(860,539)"/>
<path d="M0 0 C2.5 0.125 2.5 0.125 3.5 1.125 C3.54080783 3.12458364 3.54254356 5.12545254 3.5 7.125 C5.975 8.115 5.975 8.115 8.5 9.125 C8.5 6.485 8.5 3.845 8.5 1.125 C9.16 1.785 9.82 2.445 10.5 3.125 C10.31873935 6.44811195 10.10763145 9.11228092 8.375 12 C5.48728092 13.73263145 2.82311195 13.94373935 -0.5 14.125 C-1.16 13.465 -1.82 12.805 -2.5 12.125 C0.14 12.125 2.78 12.125 5.5 12.125 C3.14619703 8.20199505 0.85535069 7.28642685 -3.5 6.125 C-3.542721 4.45888095 -3.54063832 2.79117115 -3.5 1.125 C-2.5 0.125 -2.5 0.125 0 0 Z " fill="#DB9690" transform="translate(839.5,526.875)"/>
<path d="M0 0 C1.5625 1.0625 1.5625 1.0625 3 3 C2.77589301 7.18333056 2.3385104 9.49223439 0 13 C-0.66 12.67 -1.32 12.34 -2 12 C-2 11.67 -2 11.34 -2 11 C-2.86625 10.87625 -2.86625 10.87625 -3.75 10.75 C-6.71388479 9.7620384 -8.10091302 8.46177942 -10 6 C-9.75 3.75 -9.75 3.75 -9 2 C-8.34 2 -7.68 2 -7 2 C-6.67 3.65 -6.34 5.3 -6 7 C-5.34 7 -4.68 7 -4 7 C-4.33 6.38125 -4.66 5.7625 -5 5.125 C-6 3 -6 3 -6 1 C-4.0625 1.3125 -4.0625 1.3125 -2 2 C-1.67 2.99 -1.34 3.98 -1 5 C-0.34 4.67 0.32 4.34 1 4 C0.67 2.68 0.34 1.36 0 0 Z " fill="#EECDCB" transform="translate(799,541)"/>
<path d="M0 0 C0.33 0 0.66 0 1 0 C1 14.19 1 28.38 1 43 C-3.29 42.67 -7.58 42.34 -12 42 C-12 41.67 -12 41.34 -12 41 C-9.94921875 40.77213542 -7.8984375 40.54427083 -5.84765625 40.31640625 C-3.98859771 40.18113386 -3.98859771 40.18113386 -3 39 C-2.92794489 37.31391034 -2.91613932 35.62499341 -2.9375 33.9375 C-2.95103516 32.55884766 -2.95103516 32.55884766 -2.96484375 31.15234375 C-2.97644531 30.44207031 -2.98804688 29.73179687 -3 29 C-2.34 29.33 -1.68 29.66 -1 30 C-0.67 20.1 -0.34 10.2 0 0 Z " fill="#EECECB" transform="translate(865,513)"/>
<path d="M0 0 C6.625 -0.25 6.625 -0.25 10 2 C10.546875 3.875 10.546875 3.875 10.75 6 C10.82734375 6.70125 10.9046875 7.4025 10.984375 8.125 C11 10 11 10 10 12 C7.5625 11.375 7.5625 11.375 5 10 C4.1875 6.875 4.1875 6.875 4 4 C2.35 3.67 0.7 3.34 -1 3 C-0.67 2.01 -0.34 1.02 0 0 Z " fill="#F9EEED" transform="translate(838,524)"/>
<path d="M0 0 C3.5 1.0625 3.5 1.0625 4.62109375 2.6953125 C5.4375 4.625 5.4375 4.625 6.5 8.0625 C5.51 8.0625 4.52 8.0625 3.5 8.0625 C2.84 7.0725 2.18 6.0825 1.5 5.0625 C0.51 4.7325 -0.48 4.4025 -1.5 4.0625 C-1.005 5.2071875 -1.005 5.2071875 -0.5 6.375 C0.5 9.0625 0.5 9.0625 0.5 12.0625 C-0.82 10.7425 -2.14 9.4225 -3.5 8.0625 C-3.17 7.0725 -2.84 6.0825 -2.5 5.0625 C-3.49 5.3925 -4.48 5.7225 -5.5 6.0625 C-5.83 4.7425 -6.16 3.4225 -6.5 2.0625 C-3.5 0.0625 -3.5 0.0625 0 0 Z " fill="#F8ECEB" transform="translate(794.5,537.9375)"/>
<path d="M0 0 C6.26721763 -0.48209366 6.26721763 -0.48209366 9.375 1.5625 C11.48973588 4.73460383 11.85985901 7.21619329 12 11 C11.34 11.66 10.68 12.32 10 13 C10 11.68 10 10.36 10 9 C9.01 9.33 8.02 9.66 7 10 C6.34 8.68 5.68 7.36 5 6 C3.68 6 2.36 6 1 6 C0.67 5.01 0.34 4.02 0 3 C1.32 2.67 2.64 2.34 4 2 C4 2.66 4 3.32 4 4 C4.66 3.34 5.32 2.68 6 2 C3.03 1.505 3.03 1.505 0 1 C0 0.67 0 0.34 0 0 Z " fill="#DE9C97" transform="translate(804,524)"/>
<path d="M0 0 C0.79953138 3.28696233 1.09658936 4.71023192 0 8 C-1.98 8.33 -3.96 8.66 -6 9 C-6.33 8.34 -6.66 7.68 -7 7 C-5.68 6.67 -4.36 6.34 -3 6 C-3 4.68 -3 3.36 -3 2 C-5.33075929 2.95865509 -5.33075929 2.95865509 -7 6 C-7.33 4.02 -7.66 2.04 -8 0 C-5.13822943 -1.43088528 -3.06624227 -0.59991697 0 0 Z " fill="#DD9A95" transform="translate(829,520)"/>
<path d="M0 0 C3.01905826 2.78071156 3.93909826 4.19305194 4.25 8.3125 C4.1675 9.199375 4.085 10.08625 4 11 C3.01 11.495 3.01 11.495 2 12 C2.04125 11.05125 2.0825 10.1025 2.125 9.125 C2.34973818 5.89755144 2.34973818 5.89755144 0 4 C-2.68839385 3.73008094 -5.29141936 3.91262643 -8 4 C-8 3.34 -8 2.68 -8 2 C-8.66 1.67 -9.32 1.34 -10 1 C-6.42600939 -1.33684001 -4.04178885 -1.26305902 0 0 Z " fill="#EFCFCD" transform="translate(829,516)"/>
<path d="M0 0 C0.33 0 0.66 0 1 0 C1 1.65 1 3.3 1 5 C-2.01868434 6.50934217 -4.67297229 6.17510672 -8 6 C-8.99 5.34 -9.98 4.68 -11 4 C-11 3.34 -11 2.68 -11 2 C-7.37 2 -3.74 2 0 2 C0 1.34 0 0.68 0 0 Z " fill="#E5B4B0" transform="translate(827,550)"/>
<path d="M0 0 C2.31 0 4.62 0 7 0 C6.67 2.64 6.34 5.28 6 8 C4.35 8 2.7 8 1 8 C0.40267181 5.23735711 0 2.83967231 0 0 Z " fill="#CA635A" transform="translate(852,545)"/>
<path d="M0 0 C4.29 0 8.58 0 13 0 C12.34 2.97 11.68 5.94 11 9 C10.01 8.67 9.02 8.34 8 8 C8 5.69 8 3.38 8 1 C5.36 1 2.72 1 0 1 C0 0.67 0 0.34 0 0 Z " fill="#D17972" transform="translate(816,541)"/>
<path d="M0 0 C1.485 0.99 1.485 0.99 3 2 C3.99 2 4.98 2 6 2 C6 3.32 6 4.64 6 6 C4.02 6.66 2.04 7.32 0 8 C-0.79953138 4.71303767 -1.09658936 3.28976808 0 0 Z " fill="#F2D9D7" transform="translate(820,520)"/>
<path d="M0 0 C0.66 0.66 1.32 1.32 2 2 C1.81873935 5.32311195 1.60763145 7.98728092 -0.125 10.875 C-3.01271908 12.60763145 -5.67688805 12.81873935 -9 13 C-9.66 12.34 -10.32 11.68 -11 11 C-8.36 11 -5.72 11 -3 11 C-2.67 10.01 -2.34 9.02 -2 8 C-1.34 8 -0.68 8 0 8 C0 5.36 0 2.72 0 0 Z " fill="#E5B3AE" transform="translate(848,528)"/>
<path d="M0 0 C2.125 0.9375 2.125 0.9375 4 2 C3.67 3.32 3.34 4.64 3 6 C1.35 5.67 -0.3 5.34 -2 5 C-2 3.68 -2 2.36 -2 1 C-1.34 0.67 -0.68 0.34 0 0 Z " fill="#FCF7F6" transform="translate(807,529)"/>
<path d="M0 0 C0.66 0 1.32 0 2 0 C2.33 1.65 2.66 3.3 3 5 C4.65 5.33 6.3 5.66 8 6 C7.67 6.99 7.34 7.98 7 9 C3.2273236 8.46104623 1.31787009 7.00464642 -1 4 C-0.75 1.75 -0.75 1.75 0 0 Z " fill="#BE3E34" transform="translate(790,543)"/>
<path d="M0 0 C1 3 1 3 0.4375 5.625 C-1 8 -1 8 -4.125 8.8125 C-5.07375 8.874375 -6.0225 8.93625 -7 9 C-7 8.34 -7 7.68 -7 7 C-6.01 7 -5.02 7 -4 7 C-3.34 5.35 -2.68 3.7 -2 2 C-1.34 2 -0.68 2 0 2 C0 1.34 0 0.68 0 0 Z " fill="#FAF2F1" transform="translate(814,531)"/>
<path d="M0 0 C0 0.66 0 1.32 0 2 C-3.3 2 -6.6 2 -10 2 C-7.85732894 -2.28534211 -3.95706306 -0.79141261 0 0 Z " fill="#D68780" transform="translate(860,539)"/>
<path d="M0 0 C0 0.99 0 1.98 0 3 C-1.65 3 -3.3 3 -5 3 C-5.33 3.66 -5.66 4.32 -6 5 C-6.99 4.34 -7.98 3.68 -9 3 C-6.38997624 -0.48003168 -4.1689578 -0.27793052 0 0 Z " fill="#FEFEFE" transform="translate(810,525)"/>
<path d="M0 0 C1.9375 0.3125 1.9375 0.3125 4 1 C4.33 1.99 4.66 2.98 5 4 C4.67 4.66 4.34 5.32 4 6 C2.68 5.34 1.36 4.68 0 4 C0 2.68 0 1.36 0 0 Z " fill="#F2D9D7" transform="translate(793,542)"/>
<path d="M0 0 C0.99 0.99 1.98 1.98 3 3 C2.8125 6.125 2.8125 6.125 2 9 C1.01 9.495 1.01 9.495 0 10 C0 6.7 0 3.4 0 0 Z " fill="#FEFDFD" transform="translate(829,519)"/>
<path d="M0 0 C-1.50223584 4.20626034 -4.28550034 5.73900021 -8 8 C-6.48291727 4.46014029 -4.24676932 0 0 0 Z " fill="#F4E0DF" transform="translate(576,63)"/>
<path d="M0 0 C1.98 0 3.96 0 6 0 C5.67 1.32 5.34 2.64 5 4 C3.35 3.67 1.7 3.34 0 3 C0 2.01 0 1.02 0 0 Z " fill="#BF4036" transform="translate(805,534)"/>
</svg>
